# PLI R5 source conversion — Gobkit Corgi (CC0)
mtllib Corgi.mtl
o Gobkit_Corgi_CC0
v -173.205078125 196.786834717 -0.000000000
v -122.474494934 319.261322021 -0.000000000
v -99.999992371 296.786834717 -99.999992371
v -122.474494934 196.786834717 -122.474494934
v -0.000000000 196.786834717 -173.205078125
v -0.000000000 319.261322021 -122.474494934
v 99.999992371 296.786834717 -99.999992371
v 122.474494934 196.786834717 -122.474494934
v 173.205078125 196.786834717 -0.000000000
v 122.474494934 319.261322021 -0.000000000
v 99.999992371 296.786834717 99.999992371
v 122.474494934 196.786834717 122.474494934
v -0.000000000 196.786834717 162.211242676
v -0.000000000 319.261322021 122.474494934
v -99.999992371 296.786834717 99.999992371
v -122.474494934 196.786834717 122.474494934
v -0.000000000 23.581754684 -0.000000000
v 122.474494934 74.312347412 -0.000000000
v 99.999992371 96.786834717 99.999992371
v -0.000000000 74.312347412 122.474494934
v -0.000000000 369.991912842 -0.000000000
v -122.474494934 319.261322021 -0.000000000
v -0.000000000 369.991912842 -0.000000000
v 122.474494934 319.261322021 -0.000000000
v -122.474494934 74.312347412 -0.000000000
v -99.999992371 96.786834717 99.999992371
v -99.999992371 96.786834717 -99.999992371
v -0.000000000 74.312347412 -122.474494934
v -0.000000000 23.581754684 -0.000000000
v -122.474494934 74.312347412 -0.000000000
v 99.999992371 96.786834717 -99.999992371
v 122.474494934 74.312347412 -0.000000000
v -0.000000000 196.786834717 162.211242676
v -122.474494934 196.786834717 122.474494934
v 122.474494934 196.786834717 122.474494934
v 173.205078125 196.786834717 -0.000000000
v 122.474494934 196.786834717 -122.474494934
v 173.205078125 196.786834717 -0.000000000
v 173.205078125 196.786834717 -0.000000000
v -0.000000000 196.786834717 -173.205078125
v -122.474494934 196.786834717 -122.474494934
v -173.205078125 196.786834717 -0.000000000
v -173.205078125 196.786834717 -0.000000000
v -173.205078125 196.786834717 -0.000000000
v -24.728395462 220.837570190 -175.442123413
v -17.485612869 229.823165894 -175.442123413
v -9.859303474 228.174270630 -184.249603271
v -13.067975998 220.837570190 -187.458282471
v -0.000000239 220.837570190 -200.170516968
v -0.000000239 229.823165894 -192.927734375
v 9.859303474 228.174270630 -184.249603271
v 13.067975998 220.837570190 -187.458282471
v 24.728395462 220.837570190 -175.442123413
v 17.485612869 229.823165894 -175.442123413
v 14.276941299 228.174270630 -161.165191650
v 17.485612869 220.837570190 -157.956497192
v -0.000000239 220.837570190 -150.713729858
v -0.000000239 229.823165894 -157.956497192
v -14.276941299 228.174270630 -161.165191650
v -17.485612869 220.837570190 -157.956497192
v -0.000000239 208.130020142 -175.442123413
v 17.485616684 211.851974487 -175.442123413
v 14.276944160 213.500854492 -161.165176392
v -0.000000239 211.851974487 -157.956497192
v -0.000000239 233.545104980 -175.442123413
v -17.485616684 211.851974487 -175.442123413
v -14.276944160 213.500854492 -161.165176392
v -9.859304428 213.500854492 -184.249618530
v -0.000000239 211.851974487 -192.927734375
v 9.859304428 213.500854492 -184.249618530
v -0.000000239 220.837570190 -150.713729858
v -17.485612869 220.837570190 -157.956497192
v 17.485612869 220.837570190 -157.956497192
v 24.728395462 220.837570190 -175.442123413
v 13.067975998 220.837570190 -187.458282471
v -0.000000239 220.837570190 -200.170516968
v -13.067975998 220.837570190 -187.458282471
v -24.728395462 220.837570190 -175.442123413
v 101.098434448 -4.751849174 36.868499756
v 31.727769852 -4.751849174 36.868499756
v 37.985218048 154.139633179 43.125942230
v 94.840988159 154.139633179 43.125942230
v 101.098396301 -4.751825333 -41.440940857
v 101.098396301 -4.751825333 -110.811599731
v 94.840950012 154.139633179 -104.554153442
v 94.840950012 154.139633179 -47.698383331
v 31.727737427 -4.751825333 -41.440940857
v 31.727737427 -4.751825333 -110.811599731
v 37.985183716 154.139633179 -47.698383331
v 37.985183716 154.139633179 -104.554153442
v 101.098396301 -4.751825333 -110.811599731
v 31.727737427 -4.751825333 -110.811599731
v 37.985183716 154.139633179 -104.554153442
v 94.840950012 154.139633179 -104.554153442
v 31.727769852 -4.751849174 106.239166260
v 101.098434448 -4.751849174 106.239166260
v 94.840988159 154.139633179 99.981712341
v 37.985218048 154.139633179 99.981712341
v 101.098434448 -4.751849174 106.239166260
v 94.840988159 154.139633179 99.981712341
v 31.727769852 -4.751849174 106.239166260
v 37.985218048 154.139633179 99.981712341
v -101.098434448 -4.751849174 36.868499756
v -94.840988159 154.139633179 43.125942230
v -37.985218048 154.139633179 43.125942230
v -31.727769852 -4.751849174 36.868499756
v -101.098396301 -4.751825333 -41.440940857
v -94.840950012 154.139633179 -47.698383331
v -94.840950012 154.139633179 -104.554153442
v -101.098396301 -4.751825333 -110.811599731
v -31.727737427 -4.751825333 -110.811599731
v -31.727737427 -4.751825333 -41.440940857
v -37.985183716 154.139633179 -104.554153442
v -37.985183716 154.139633179 -47.698383331
v -31.727769852 -4.751849174 106.239166260
v -37.985218048 154.139633179 99.981712341
v -94.840988159 154.139633179 99.981712341
v -101.098434448 -4.751849174 106.239166260
v -94.840988159 154.139633179 43.125942230
v -101.098434448 -4.751849174 36.868499756
v -31.727769852 -4.751849174 36.868499756
v -37.985218048 154.139633179 43.125942230
v -31.727737427 -4.751825333 -41.440940857
v -37.985183716 154.139633179 -47.698383331
v -94.840950012 154.139633179 -47.698383331
v -101.098396301 -4.751825333 -41.440940857
v -99.064987183 323.438598633 88.126754761
v -130.544387817 299.266784668 92.528480530
v -120.855712891 241.918716431 87.298271179
v -87.300239563 276.512542725 84.122367859
v -58.068889618 345.547058105 95.991027832
v -46.633628845 308.197723389 85.429367065
v -80.363609314 372.471160889 100.124977112
v -104.130882263 382.001617432 94.822525024
v -120.474388123 354.531921387 96.833976746
v -103.302894592 341.025665283 80.122024536
v -93.280342102 255.798034668 71.827667236
v -129.891723633 210.544647217 77.837890625
v -144.938217163 300.783020020 86.957832336
v -45.354022980 353.883209229 88.888473511
v -30.306339264 304.615631104 75.508750916
v -72.229202271 386.051391602 94.601119995
v -109.953567505 399.621002197 91.779106140
v -133.829498291 361.162811279 92.002571106
v -144.668426514 299.023529053 96.313209534
v -133.559707642 359.403320313 101.357940674
v -133.829498291 361.162811279 92.002571106
v -144.938217163 300.783020020 86.957832336
v -71.959411621 384.291900635 103.956489563
v -45.084232330 352.123718262 98.243835449
v -72.229202271 386.051391602 94.601119995
v -30.036548615 302.856140137 84.864112854
v -109.683776855 397.861511230 101.134468079
v -71.959411621 384.291900635 103.956489563
v -109.953567505 399.621002197 91.779106140
v -129.621932983 208.785140991 87.193260193
v -129.891723633 210.544647217 77.837890625
v -120.855712891 241.918716431 87.298271179
v -130.544387817 299.266784668 92.528480530
v -144.668426514 299.023529053 96.313209534
v -129.621932983 208.785140991 87.193260193
v -80.363609314 372.471160889 100.124977112
v -58.068889618 345.547058105 95.991027832
v -45.084232330 352.123718262 98.243835449
v -71.959411621 384.291900635 103.956489563
v -120.474388123 354.531921387 96.833976746
v -104.130882263 382.001617432 94.822525024
v -109.683776855 397.861511230 101.134468079
v -133.559707642 359.403320313 101.357940674
v -46.633628845 308.197723389 85.429367065
v -87.300239563 276.512542725 84.122367859
v -81.299423218 263.117034912 81.867599487
v -30.036548615 302.856140137 84.864112854
v 99.065017700 323.438598633 88.126754761
v 87.300262451 276.512542725 84.122375488
v 120.855735779 241.918716431 87.298278809
v 130.544403076 299.266784668 92.528480530
v 58.068893433 345.547058105 95.991035461
v 46.633647919 308.197723389 85.429374695
v 80.363616943 372.471160889 100.124977112
v 104.130905151 382.001617432 94.822525024
v 120.474418640 354.531921387 96.833976746
v 103.302909851 341.025665283 80.122024536
v 144.938247681 300.783050537 86.957832336
v 129.891738892 210.544647217 77.837890625
v 93.280357361 255.798034668 71.827667236
v 45.354026794 353.883209229 88.888473511
v 30.306346893 304.615631104 75.508750916
v 72.229202271 386.051391602 94.601127625
v 109.953590393 399.621002197 91.779106140
v 133.829528809 361.162811279 92.002578735
v 144.668441772 299.023529053 96.313209534
v 144.938247681 300.783050537 86.957832336
v 133.829528809 361.162811279 92.002578735
v 133.559738159 359.403320313 101.357948303
v 71.959426880 384.291900635 103.956489563
v 72.229202271 386.051391602 94.601127625
v 45.354026794 353.883209229 88.888473511
v 45.084251404 352.123748779 98.243843079
v 30.036556244 302.856140137 84.864112854
v 109.683792114 397.861511230 101.134475708
v 109.953590393 399.621002197 91.779106140
v 129.621932983 208.785140991 87.193260193
v 129.891738892 210.544647217 77.837890625
v 120.855735779 241.918716431 87.298278809
v 129.621932983 208.785140991 87.193260193
v 144.668441772 299.023529053 96.313209534
v 130.544403076 299.266784668 92.528480530
v 80.363616943 372.471160889 100.124977112
v 71.959426880 384.291900635 103.956489563
v 45.084251404 352.123748779 98.243843079
v 58.068893433 345.547058105 95.991035461
v 120.474418640 354.531921387 96.833976746
v 133.559738159 359.403320313 101.357948303
v 109.683792114 397.861511230 101.134475708
v 104.130905151 382.001617432 94.822525024
v 46.633647919 308.197723389 85.429374695
v 30.036556244 302.856140137 84.864112854
v 81.299446106 263.117034912 81.867599487
v 87.300262451 276.512542725 84.122375488
v 40.027500153 117.647727966 215.090103149
v 46.470939636 117.770195007 190.114913940
v 59.224403381 142.014526367 197.370834351
v 48.600341797 140.000549316 220.120452881
v 77.340866089 159.353546143 116.997177124
v 59.824531555 116.770935059 116.458824158
v 69.168579102 115.231842041 80.282066345
v 81.941658020 157.859832764 100.309494019
v 0.000000000 183.601516724 227.663757324
v 0.000000000 157.449783325 237.502609253
v 22.083967209 157.449783325 237.502609253
v 22.228002548 183.601516724 227.663757324
v -77.340866089 159.353546143 116.997177124
v -81.941658020 157.859832764 100.309494019
v -69.168579102 115.231842041 80.282066345
v -59.824531555 116.770935059 116.458824158
v 0.000000000 112.871063232 222.764984131
v 25.291099548 113.010124207 222.244995117
v 20.790012360 139.153274536 229.691101074
v 0.000000000 143.430755615 229.691101074
v 0.000000000 150.219024658 234.399368286
v 22.083967209 145.676254272 234.399368286
v -0.000000000 201.804550171 116.329544067
v -28.784589767 201.804550171 116.329544067
v -25.858259201 196.239578247 152.231216431
v 0.000000000 196.239578247 152.231216431
v -25.291099548 113.010124207 222.244995117
v -40.027500153 117.647727966 215.090103149
v -46.470939636 117.770195007 190.114913940
v -29.091602325 111.367576599 188.963882446
v -20.790012360 139.153274536 229.691101074
v 0.000000000 143.430755615 229.691101074
v 0.000000000 150.219024658 234.399368286
v -22.083967209 145.676254272 234.399368286
v 82.109336853 165.572525024 114.820671082
v 81.941658020 157.859832764 100.309494019
v 88.356712341 185.690780640 80.210632324
v 75.866363525 181.329208374 118.660820007
v 23.319820404 190.337524414 194.481887817
v 0.000000000 190.337524414 194.481887817
v 0.000000000 183.601516724 227.663757324
v 0.000000000 190.337524414 194.481887817
v -23.319820404 190.337524414 194.481887817
v -22.228002548 183.601516724 227.663757324
v -22.083967209 145.676254272 234.399368286
v -22.083967209 157.449783325 237.502609253
v -49.659446716 159.912567139 223.256759644
v -51.615753174 146.705184937 224.243392944
v -0.000000000 106.165420532 75.044860840
v 46.225193024 106.165420532 75.044860840
v 39.400043488 108.834968567 112.646896362
v -0.000000000 109.276725769 116.333221436
v 49.659446716 159.912567139 223.256759644
v 52.813816071 117.306365967 152.790466309
v 34.042064667 110.182731628 150.318572998
v 0.000000000 196.239578247 152.231216431
v 25.858259201 196.239578247 152.231216431
v 29.091602325 111.367576599 188.963882446
v 77.340866089 159.353546143 116.997177124
v 82.109336853 165.572525024 114.820671082
v 72.514328003 156.266006470 152.808746338
v 68.275260925 148.570114136 152.865325928
v 0.000000000 157.449783325 237.502609253
v 0.000000000 150.219024658 234.399368286
v -68.275260925 148.570114136 152.865325928
v -59.224403381 142.014526367 197.370834351
v -62.890701294 149.150909424 200.102523804
v -72.514328003 156.266006470 152.808746338
v -59.224403381 142.014526367 197.370834351
v -68.275260925 148.570114136 152.865325928
v -52.813816071 117.306365967 152.790466309
v 60.557849884 165.766647339 196.386093140
v 68.205062866 174.756393433 154.278076172
v 51.615753174 146.705184937 224.243392944
v 62.890701294 149.150909424 200.102523804
v 48.600341797 140.000549316 220.120452881
v 51.615753174 146.705184937 224.243392944
v 22.083967209 145.676254272 234.399368286
v 20.790012360 139.153274536 229.691101074
v 72.514328003 156.266006470 152.808746338
v 68.275260925 148.570114136 152.865325928
v -60.557849884 165.766647339 196.386093140
v -62.890701294 149.150909424 200.102523804
v 0.000000000 110.683357239 144.543395996
v -0.000000000 106.165420532 75.044860840
v -0.000000000 109.276725769 116.333221436
v -39.400043488 108.834968567 112.646896362
v -46.225193024 106.165420532 75.044860840
v -51.615753174 146.705184937 224.243392944
v -48.600341797 140.000549316 220.120452881
v -82.109336853 165.572525024 114.820671082
v -75.866363525 181.329208374 118.660820007
v -88.356712341 185.690780640 80.210632324
v -81.941658020 157.859832764 100.309494019
v -33.576683044 210.597885132 77.546493530
v -75.866363525 181.329208374 118.660820007
v 0.000000000 110.177192688 193.414794922
v 28.784589767 201.804550171 116.329544067
v 75.866363525 181.329208374 118.660820007
v 62.890701294 149.150909424 200.102523804
v 59.224403381 142.014526367 197.370834351
v -34.042064667 110.182731628 150.318572998
v 0.000000000 110.683357239 144.543395996
v 0.000000000 112.871063232 222.764984131
v 0.000000000 143.430755615 229.691101074
v -20.790012360 139.153274536 229.691101074
v 33.576683044 210.597885132 77.546493530
v 82.109336853 165.572525024 114.820671082
v -82.109336853 165.572525024 114.820671082
v -0.000000000 201.804550171 116.329544067
v -48.600341797 140.000549316 220.120452881
v -0.000000000 210.597885132 77.546493530
v -77.340866089 159.353546143 116.997177124
v -82.109336853 165.572525024 114.820671082
v -68.205062866 174.756393433 154.278076172
v -0.000000000 210.597885132 77.546493530
v 0.000000000 150.219024658 234.399368286
v 0.000000000 143.430755615 229.691101074
v 0.000000000 110.177192688 193.414794922
v -29.091602325 111.367576599 188.963882446
v -72.514328003 156.266006470 152.808746338
v 0.000000000 213.570114136 210.807754517
v 0.000000000 206.699478149 231.156921387
v 30.089046478 205.006591797 226.905090332
v 22.922794342 211.257278442 214.850418091
v 19.477579117 172.172271729 226.905090332
v 19.477579117 172.172271729 186.607833862
v 28.593503952 195.934646606 177.563095093
v 31.340936661 195.503952026 226.905090332
v 0.000000000 213.570114136 210.807754517
v -22.922794342 211.257278442 214.850418091
v -30.089046478 205.006591797 226.905090332
v 0.000000000 206.699478149 231.156921387
v 0.000000000 172.172271729 231.156921387
v 0.000000000 195.503952026 231.156921387
v -31.340936661 195.503952026 226.905090332
v -19.477579117 172.172271729 226.905090332
v 0.000000000 214.000808716 185.778594971
v -22.771305084 211.359832764 185.494171143
v 0.000000000 172.172271729 191.162384033
v 0.000000000 196.365386963 176.733856201
v -28.593503952 195.934646606 177.563095093
v -19.477579117 172.172271729 186.607833862
v 0.000000000 172.172271729 231.156921387
v 19.477579117 172.172271729 226.905090332
v 31.340936661 195.503952026 226.905090332
v 0.000000000 195.503952026 231.156921387
v 22.771305084 211.359832764 185.494171143
v -19.477579117 172.172271729 186.607833862
v -28.593503952 195.934646606 177.563095093
v 0.000000000 196.365386963 176.733856201
v 0.000000000 172.172271729 191.162384033
v 0.000000000 205.006591797 181.926345825
v 29.357011795 205.006591797 182.180648804
v 29.357011795 205.006591797 182.180648804
v 22.771305084 211.359832764 185.494171143
v -29.357011795 205.006591797 182.180648804
v 0.000000000 205.006591797 181.926345825
v -30.089046478 205.006591797 226.905090332
v -29.357011795 205.006591797 182.180648804
v -22.771305084 211.359832764 185.494171143
v 0.000000000 214.000808716 185.778594971
v 51.198818207 240.070617676 147.044769287
v 65.997856140 236.005569458 143.562683105
v 83.721725464 247.773406982 138.377670288
v 62.882884979 253.497451782 143.280853271
v 36.525653839 236.005599976 151.024093628
v 42.221294403 247.773406982 148.884231567
v 25.910045624 224.899734497 154.434387207
v 37.339374542 183.452224731 154.238250732
v 26.379840851 194.558059692 156.290069580
v 43.367115021 173.771896362 153.410140991
v 52.138412476 179.387191772 150.756164551
v 64.205955505 168.047866821 148.506958008
v 66.811569214 183.452224731 146.776855469
v 84.867530823 173.771896362 142.903579712
v 77.427185059 194.558059692 143.366561890
v 99.815612793 189.410263062 138.101470947
v 81.140808105 209.728881836 141.439056396
v 105.044837952 210.772659302 135.387344360
v 76.957389832 224.899734497 141.510864258
v 99.154090881 232.135055542 135.488449097
v 51.668613434 209.728912354 148.900451660
v 51.198818207 240.070617676 147.044769287
v 36.525653839 236.005599976 151.024093628
v -36.525653839 236.005599976 151.024093628
v -42.221294403 247.773406982 148.884231567
v -62.882884979 253.497451782 143.280853271
v -51.198818207 240.070617676 147.044769287
v -25.910045624 224.899734497 154.434387207
v -37.339374542 183.452224731 154.238250732
v -43.367115021 173.771896362 153.410140991
v -26.379840851 194.558059692 156.290069580
v -52.138412476 179.387191772 150.756164551
v -64.205955505 168.047866821 148.506958008
v -66.811569214 183.452224731 146.776855469
v -84.867530823 173.771896362 142.903579712
v -77.427185059 194.558059692 143.366561890
v -99.815612793 189.410263062 138.101470947
v -81.140808105 209.728881836 141.439056396
v -105.044837952 210.772659302 135.387344360
v -76.957389832 224.899734497 141.510864258
v -99.154090881 232.135055542 135.488449097
v -65.997856140 236.005569458 143.562683105
v -83.721725464 247.773406982 138.377670288
v -51.668613434 209.728912354 148.900451660
v -36.525653839 236.005599976 151.024093628
v -51.198818207 240.070617676 147.044769287
v -51.668613434 209.728912354 148.900451660
v -25.910045624 224.899734497 154.434387207
v -51.668613434 209.728912354 148.900451660
v -22.196416855 209.728881836 156.361862183
v -51.668613434 209.728912354 148.900451660
v -26.379840851 194.558059692 156.290069580
v -51.668613434 209.728912354 148.900451660
v -37.339374542 183.452224731 154.238250732
v -51.668613434 209.728912354 148.900451660
v -52.138412476 179.387191772 150.756164551
v -51.668613434 209.728912354 148.900451660
v -66.811569214 183.452224731 146.776855469
v -51.668613434 209.728912354 148.900451660
v -77.427185059 194.558059692 143.366561890
v -51.668613434 209.728912354 148.900451660
v -81.140808105 209.728881836 141.439056396
v -51.668613434 209.728912354 148.900451660
v -76.957389832 224.899734497 141.510864258
v -51.668613434 209.728912354 148.900451660
v -65.997856140 236.005569458 143.562683105
v -51.668613434 209.728912354 148.900451660
v 51.668613434 209.728912354 148.900451660
v 25.910045624 224.899734497 154.434387207
v 51.668613434 209.728912354 148.900451660
v 22.196416855 209.728881836 156.361862183
v 51.668613434 209.728912354 148.900451660
v 26.379840851 194.558059692 156.290069580
v 51.668613434 209.728912354 148.900451660
v 37.339374542 183.452224731 154.238250732
v 51.668613434 209.728912354 148.900451660
v 52.138412476 179.387191772 150.756164551
v 51.668613434 209.728912354 148.900451660
v 66.811569214 183.452224731 146.776855469
v 51.668613434 209.728912354 148.900451660
v 77.427185059 194.558059692 143.366561890
v 51.668613434 209.728912354 148.900451660
v 81.140808105 209.728881836 141.439056396
v 51.668613434 209.728912354 148.900451660
v 76.957389832 224.899734497 141.510864258
v 51.668613434 209.728912354 148.900451660
v 65.997856140 236.005569458 143.562683105
v 51.668613434 209.728912354 148.900451660
v -0.000000000 238.964141846 149.687057495
v 0.000000000 195.988815308 162.830841064
v 21.734668732 195.419265747 158.103500366
v 20.690731049 238.018356323 147.553970337
v -0.000000000 238.964141846 149.687057495
v -20.690731049 238.018356323 147.553970337
v -21.734668732 195.419265747 158.103500366
v 0.000000000 195.988815308 162.830841064
v -0.000000000 279.344360352 136.792633057
v -19.430156708 278.099151611 134.170074463
v -0.000000000 279.344360352 136.792633057
v 19.430156708 278.099151611 134.170074463
v -19.430156708 278.099151611 134.170074463
v -0.000000000 319.657745361 123.349571228
v -18.129358292 315.803253174 119.829978943
v 18.129358292 315.803253174 119.829978943
v -0.000000000 337.918487549 79.962013245
v -18.061637878 336.026947021 75.695846558
v 18.061637878 336.026947021 75.695846558
v 6.068558216 143.485687256 229.807998657
v 5.973685741 124.222045898 240.656478882
v -5.973686218 124.222045898 240.656478882
v -6.068559170 143.485687256 229.807998657
v 20.807067871 143.619018555 230.091903687
v 16.995054245 131.022903442 239.026748657
v -16.995054245 131.022903442 239.026748657
v -20.807067871 143.619018555 230.091903687
v 6.025073051 143.809997559 230.334091187
v -6.025074005 143.809997559 230.334091187
v -5.941358089 124.543296814 241.184967041
v 5.941357613 124.543296814 241.184967041
v 16.908391953 131.358413696 239.542114258
v 20.720407486 143.954528809 230.607299805
v -20.720407486 143.954528809 230.607299805
v -16.908391953 131.358413696 239.542114258
v -20.807067871 143.619018555 230.091903687
v -16.995054245 131.022903442 239.026748657
v 16.995054245 131.022903442 239.026748657
v 20.807067871 143.619018555 230.091903687
v 6.068558216 143.485687256 229.807998657
v -6.068559170 143.485687256 229.807998657
v -5.973686218 124.222045898 240.656478882
v 5.973685741 124.222045898 240.656478882
usemtl corgi_source
s 1
f 1 2 3
f 1 3 4
f 5 6 7
f 5 7 8
f 9 10 11
f 9 11 12
f 13 14 15
f 13 15 16
f 17 18 19
f 17 19 20
f 21 22 15
f 21 15 14
f 10 21 14
f 10 14 11
f 7 6 23
f 7 23 24
f 6 3 2
f 6 2 23
f 25 17 20
f 25 20 26
f 27 28 29
f 27 29 30
f 28 31 32
f 28 32 29
f 20 33 34
f 20 34 26
f 19 35 33
f 19 33 20
f 12 11 14
f 12 14 13
f 18 36 35
f 18 35 19
f 31 37 38
f 31 38 32
f 8 7 24
f 8 24 39
f 28 40 37
f 28 37 31
f 27 41 40
f 27 40 28
f 4 3 6
f 4 6 5
f 30 42 41
f 30 41 27
f 26 34 43
f 26 43 25
f 16 15 22
f 16 22 44
f 45 46 47
f 45 47 48
f 49 50 51
f 49 51 52
f 53 54 55
f 53 55 56
f 57 58 59
f 57 59 60
f 61 62 63
f 61 63 64
f 65 46 59
f 65 59 58
f 54 65 58
f 54 58 55
f 51 50 65
f 51 65 54
f 50 47 46
f 50 46 65
f 66 61 64
f 66 64 67
f 68 69 61
f 68 61 66
f 69 70 62
f 69 62 61
f 64 71 72
f 64 72 67
f 63 73 71
f 63 71 64
f 56 55 58
f 56 58 57
f 62 74 73
f 62 73 63
f 70 75 74
f 70 74 62
f 52 51 54
f 52 54 53
f 69 76 75
f 69 75 70
f 68 77 76
f 68 76 69
f 48 47 50
f 48 50 49
f 66 78 77
f 66 77 68
f 67 72 78
f 67 78 66
f 60 59 46
f 60 46 45
f 79 80 81
f 79 81 82
f 83 84 85
f 83 85 86
f 84 83 87
f 84 87 88
f 88 87 89
f 88 89 90
f 91 92 93
f 91 93 94
f 95 96 97
f 95 97 98
f 99 79 82
f 99 82 100
f 79 99 101
f 79 101 80
f 80 101 102
f 80 102 81
f 103 104 105
f 103 105 106
f 107 108 109
f 107 109 110
f 110 111 112
f 110 112 107
f 111 113 114
f 111 114 112
f 110 109 113
f 110 113 111
f 87 83 86
f 87 86 89
f 115 116 117
f 115 117 118
f 118 117 119
f 118 119 120
f 120 121 115
f 120 115 118
f 121 122 116
f 121 116 115
f 123 124 125
f 123 125 126
f 127 128 129
f 127 129 130
f 131 127 130
f 131 130 132
f 133 134 127
f 133 127 131
f 134 135 128
f 134 128 127
f 136 137 138
f 136 138 139
f 140 141 137
f 140 137 136
f 142 140 136
f 142 136 143
f 143 136 139
f 143 139 144
f 145 146 147
f 145 147 148
f 149 150 140
f 149 140 151
f 150 152 141
f 150 141 140
f 153 154 151
f 153 151 155
f 146 153 155
f 146 155 147
f 156 145 148
f 156 148 157
f 158 159 160
f 158 160 161
f 162 163 164
f 162 164 165
f 166 167 168
f 166 168 169
f 170 171 172
f 170 172 173
f 167 162 165
f 167 165 168
f 171 158 161
f 171 161 172
f 159 166 169
f 159 169 160
f 163 170 173
f 163 173 164
f 174 175 176
f 174 176 177
f 178 179 175
f 178 175 174
f 180 178 174
f 180 174 181
f 181 174 177
f 181 177 182
f 183 184 185
f 183 185 186
f 187 183 186
f 187 186 188
f 189 190 183
f 189 183 187
f 190 191 184
f 190 184 183
f 192 193 194
f 192 194 195
f 196 197 198
f 196 198 199
f 199 187 188
f 199 188 200
f 201 202 197
f 201 197 196
f 195 194 202
f 195 202 201
f 203 204 193
f 203 193 192
f 205 206 207
f 205 207 208
f 209 210 211
f 209 211 212
f 213 214 215
f 213 215 216
f 217 218 219
f 217 219 220
f 216 215 210
f 216 210 209
f 220 219 206
f 220 206 205
f 208 207 214
f 208 214 213
f 212 211 218
f 212 218 217
f 221 222 223
f 221 223 224
f 225 226 227
f 225 227 228
f 229 230 231
f 229 231 232
f 233 234 235
f 233 235 236
f 237 238 239
f 237 239 240
f 230 241 242
f 230 242 231
f 243 244 245
f 243 245 246
f 247 248 249
f 247 249 250
f 251 252 253
f 251 253 254
f 255 256 257
f 255 257 258
f 229 232 259
f 229 259 260
f 261 262 263
f 261 263 264
f 265 266 267
f 265 267 268
f 269 270 271
f 269 271 272
f 231 273 232
f 224 239 238
f 224 238 221
f 226 274 275
f 226 275 271
f 276 260 259
f 276 259 277
f 274 222 278
f 274 278 275
f 279 280 281
f 279 281 282
f 283 266 265
f 283 265 284
f 285 286 287
f 285 287 288
f 289 290 291
f 289 291 249
f 277 259 292
f 277 292 293
f 292 273 294
f 292 294 295
f 296 297 298
f 296 298 299
f 295 300 293
f 295 293 292
f 223 222 274
f 223 274 301
f 302 303 268
f 302 268 267
f 272 271 275
f 272 275 304
f 242 294 273
f 242 273 231
f 238 278 222
f 238 222 221
f 305 306 307
f 305 307 308
f 309 287 286
f 309 286 310
f 266 264 267
f 311 312 313
f 311 313 314
f 315 313 316
f 315 316 244
f 304 275 278
f 304 278 317
f 318 277 293
f 318 293 319
f 282 281 320
f 282 320 321
f 291 322 250
f 291 250 249
f 273 292 259
f 273 259 232
f 290 233 236
f 290 236 291
f 235 308 307
f 235 307 236
f 306 323 322
f 306 322 307
f 297 296 321
f 297 321 320
f 324 325 326
f 324 326 247
f 310 251 254
f 310 254 309
f 327 318 319
f 327 319 257
f 228 328 225
f 234 233 329
f 330 276 277
f 330 277 318
f 331 248 247
f 331 247 326
f 315 244 243
f 315 243 332
f 227 226 271
f 227 271 270
f 333 285 288
f 333 288 334
f 300 328 319
f 300 319 293
f 301 274 226
f 301 226 225
f 261 264 266
f 261 266 283
f 244 316 335
f 244 335 245
f 327 336 330
f 327 330 318
f 299 298 337
f 299 337 338
f 304 339 340
f 304 340 322
f 246 245 263
f 246 263 262
f 341 335 316
f 341 316 329
f 303 302 335
f 303 335 341
f 248 331 289
f 248 289 249
f 236 307 322
f 236 322 291
f 245 335 302
f 245 302 263
f 250 317 324
f 250 324 247
f 278 238 237
f 278 237 339
f 267 264 263
f 267 263 302
f 342 343 344
f 342 344 345
f 346 347 348
f 346 348 349
f 350 351 352
f 350 352 353
f 354 355 356
f 354 356 357
f 358 359 351
f 358 351 350
f 347 360 361
f 347 361 348
f 357 356 362
f 357 362 363
f 364 365 366
f 364 366 367
f 358 350 345
f 358 345 368
f 369 370 371
f 369 371 372
f 356 355 353
f 356 353 352
f 373 358 368
f 373 368 374
f 366 344 343
f 366 343 367
f 375 376 345
f 375 345 344
f 371 370 377
f 371 377 378
f 362 356 379
f 362 379 380
f 380 352 351
f 380 351 359
f 361 373 374
f 361 374 348
f 348 374 344
f 348 344 349
f 378 377 381
f 378 381 382
f 383 384 385
f 383 385 386
f 387 383 386
f 387 386 388
f 389 387 388
f 390 391 392
f 393 390 392
f 393 392 394
f 395 393 394
f 395 394 396
f 397 395 396
f 397 396 398
f 399 397 398
f 399 398 400
f 401 399 400
f 401 400 402
f 403 404 405
f 384 401 402
f 384 402 385
f 406 407 408
f 406 408 409
f 410 407 406
f 411 412 413
f 414 415 412
f 414 412 411
f 416 417 415
f 416 415 414
f 418 419 417
f 418 417 416
f 420 421 419
f 420 419 418
f 422 423 421
f 422 421 420
f 424 425 423
f 424 423 422
f 409 408 425
f 409 425 424
f 426 427 428
f 429 430 427
f 431 432 430
f 433 434 432
f 435 436 434
f 437 438 436
f 439 440 438
f 441 442 440
f 443 444 442
f 445 446 444
f 447 448 446
f 449 428 448
f 450 405 451
f 452 451 453
f 454 453 455
f 456 455 457
f 458 457 459
f 460 459 461
f 462 461 463
f 464 463 465
f 466 465 467
f 468 467 469
f 470 469 404
f 471 472 473
f 471 473 474
f 475 476 477
f 475 477 478
f 479 480 476
f 479 476 475
f 481 471 474
f 481 474 482
f 483 481 484
f 483 484 485
f 481 482 486
f 481 486 484
f 485 484 487
f 485 487 488
f 484 486 489
f 484 489 487
f 490 491 492
f 490 492 493
f 490 494 495
f 490 495 491
f 493 492 496
f 493 496 497
f 498 499 500
f 498 500 501
f 498 501 502
f 498 502 503
f 499 504 505
f 499 505 500
f 506 507 505
f 506 505 504
f 508 509 503
f 508 503 502
f 510 511 499
f 510 499 498
f 512 513 501
f 512 501 500
f 509 510 498
f 509 498 503
f 513 508 502
f 513 502 501
f 511 506 504
f 511 504 499
f 507 512 500
f 507 500 505
